<svg width="148" height="124" viewBox="0 0 148 124" fill="none" xmlns="http://www.w3.org/2000/svg">
<circle cx="37.5" cy="17.5" r="13.5" stroke="#F79323" stroke-width="8"/>
<circle cx="76.5" cy="17.5" r="13.5" stroke="#F79323" stroke-width="8"/>
<path d="M3.5 24H14C15.6843 24.1383 15.9533 25.1344 16 27.5C15.9636 29.4836 15.6001 30.222 14 30.5H7V81H13.5C15.1089 81.2673 15.6898 81.8873 16 84C15.9649 86.35 15.5126 87.2423 13.5 87.5H2.5C0.667002 87.0563 0.00924415 86.328 0 83.5V27.5C0.278274 25.1571 1.04863 24.3896 3.5 24Z" fill="#FCFCFC"/>
<path d="M110.5 24H100C98.3157 24.1383 98.0467 25.1344 98 27.5C98.0364 29.4836 98.3999 30.222 100 30.5H107V81H100.5C98.8911 81.2673 98.3102 81.8873 98 84C98.0351 86.35 98.4874 87.2423 100.5 87.5H111.5C113.333 87.0563 113.991 86.328 114 83.5V27.5C113.722 25.1571 112.951 24.3896 110.5 24Z" fill="#FCFCFC"/>
<path d="M142.5 39.5L119.5 53C118.109 53.8547 117.557 54.5392 117.5 56C117.623 57.386 118.201 57.9972 119.5 59L143.5 73.5C144.812 73.8507 145.45 73.4044 146.5 72C147.476 69.8948 147.414 69.0559 146.5 68L127 56L146.5 44C147.716 42.6848 147.821 41.8824 146.5 40C145.423 38.8117 144.526 38.6848 142.5 39.5Z" fill="#FCFCFC"/>
<path d="M11.5559 102.874C11.8932 102.874 12.1425 102.889 12.3039 102.918C12.4799 102.933 12.6705 102.999 12.8759 103.116C13.0959 103.233 13.2499 103.431 13.3379 103.71C13.4259 103.989 13.4699 104.363 13.4699 104.832C13.4699 105.301 13.4259 105.675 13.3379 105.954C13.2499 106.233 13.0959 106.431 12.8759 106.548C12.6559 106.651 12.4579 106.717 12.2819 106.746C12.1205 106.761 11.8639 106.768 11.5119 106.768H4.77986V108.99H9.11386C9.46586 108.99 9.72253 109.005 9.88386 109.034C10.0599 109.049 10.2579 109.115 10.4779 109.232C10.8592 109.452 11.0499 110.031 11.0499 110.97C11.0499 111.997 10.7712 112.605 10.2139 112.796C9.97919 112.869 9.60519 112.906 9.09186 112.906H4.77986V117.064C4.77986 117.416 4.76519 117.673 4.73586 117.834C4.72119 117.995 4.65519 118.186 4.53786 118.406C4.33253 118.802 3.76053 119 2.82186 119C1.79519 119 1.19386 118.721 1.01786 118.164C0.929859 117.929 0.885859 117.555 0.885859 117.042V104.81C0.885859 104.062 1.02519 103.556 1.30386 103.292C1.58253 103.013 2.11053 102.874 2.88786 102.874H11.5559ZM21.4591 107.538C21.7378 107.626 21.9651 107.78 22.1411 108C22.3318 108.205 22.4271 108.543 22.4271 109.012C22.4271 109.481 22.2878 109.995 22.0091 110.552C21.7305 111.109 21.3271 111.388 20.7991 111.388C20.5351 111.388 20.2785 111.329 20.0291 111.212C19.7945 111.095 19.4791 111.036 19.0831 111.036C18.6871 111.036 18.3131 111.175 17.9611 111.454C17.6238 111.733 17.4551 112.07 17.4551 112.466V117.086C17.4551 117.423 17.4405 117.68 17.4111 117.856C17.3965 118.017 17.3305 118.208 17.2131 118.428C16.9931 118.809 16.4211 119 15.4971 119C14.7931 119 14.2871 118.875 13.9791 118.626C13.7445 118.421 13.6125 118.105 13.5831 117.68C13.5831 117.533 13.5831 117.321 13.5831 117.042V109.32C13.5831 108.983 13.5905 108.733 13.6051 108.572C13.6345 108.396 13.7005 108.205 13.8031 108C14.0085 107.604 14.5805 107.406 15.5191 107.406C16.3991 107.406 16.9491 107.575 17.1691 107.912C17.3305 108.147 17.4111 108.389 17.4111 108.638C17.4845 108.535 17.5871 108.411 17.7191 108.264C17.8658 108.117 18.1665 107.919 18.6211 107.67C19.0758 107.421 19.4718 107.296 19.8091 107.296C20.1611 107.296 20.4545 107.318 20.6891 107.362C20.9238 107.391 21.1805 107.45 21.4591 107.538ZM22.6418 113.214C22.6418 111.454 23.2578 110.002 24.4898 108.858C25.7218 107.714 27.1298 107.142 28.7138 107.142C30.2978 107.142 31.6985 107.714 32.9158 108.858C34.1331 109.987 34.7418 111.432 34.7418 113.192C34.7418 114.409 34.4265 115.495 33.7958 116.448C33.1651 117.387 32.3951 118.083 31.4858 118.538C30.5911 118.978 29.6598 119.198 28.6918 119.198C27.7238 119.198 26.7851 118.963 25.8758 118.494C24.9665 118.01 24.1965 117.306 23.5658 116.382C22.9498 115.443 22.6418 114.387 22.6418 113.214ZM27.2398 114.798C27.7091 115.15 28.1858 115.326 28.6698 115.326C29.1538 115.326 29.6378 115.143 30.1218 114.776C30.6058 114.409 30.8478 113.867 30.8478 113.148C30.8478 112.429 30.6205 111.894 30.1658 111.542C29.7111 111.19 29.2198 111.014 28.6918 111.014C28.1638 111.014 27.6725 111.197 27.2178 111.564C26.7631 111.931 26.5358 112.473 26.5358 113.192C26.5358 113.896 26.7705 114.431 27.2398 114.798ZM42.6092 107.406C44.0759 107.406 45.2932 107.971 46.2612 109.1C47.2439 110.215 47.7352 111.579 47.7352 113.192V117.064C47.7352 117.401 47.7205 117.658 47.6912 117.834C47.6765 117.995 47.6179 118.179 47.5152 118.384C47.3099 118.78 46.7379 118.978 45.7992 118.978C44.7579 118.978 44.1565 118.707 43.9952 118.164C43.9072 117.915 43.8632 117.541 43.8632 117.042V113.17C43.8632 112.569 43.6872 112.099 43.3352 111.762C42.9979 111.425 42.5359 111.256 41.9492 111.256C41.3772 111.256 40.9079 111.432 40.5412 111.784C40.1892 112.136 40.0132 112.598 40.0132 113.17V117.064C40.0132 117.401 39.9985 117.658 39.9692 117.834C39.9545 117.995 39.8885 118.179 39.7712 118.384C39.5805 118.78 39.0159 118.978 38.0772 118.978C37.1532 118.978 36.5885 118.78 36.3832 118.384C36.2805 118.164 36.2145 117.973 36.1852 117.812C36.1705 117.636 36.1632 117.379 36.1632 117.042V109.254C36.1632 108.931 36.1705 108.689 36.1852 108.528C36.2145 108.352 36.2879 108.161 36.4052 107.956C36.6105 107.589 37.1752 107.406 38.0992 107.406C38.9939 107.406 39.5439 107.575 39.7492 107.912C39.8959 108.161 39.9692 108.462 39.9692 108.814C40.0279 108.711 40.1599 108.565 40.3652 108.374C40.5705 108.183 40.7685 108.029 40.9592 107.912C41.4579 107.575 42.0079 107.406 42.6092 107.406ZM56.0222 111.3L54.5922 111.212V114.248C54.5922 114.644 54.6508 114.93 54.7682 115.106C54.9002 115.282 55.1348 115.37 55.4722 115.37C55.8242 115.37 56.0882 115.385 56.2642 115.414C56.4548 115.429 56.6528 115.495 56.8582 115.612C57.1955 115.803 57.3642 116.294 57.3642 117.086C57.3642 118.01 57.1588 118.575 56.7482 118.78C56.5282 118.883 56.3302 118.949 56.1542 118.978C55.9928 118.993 55.7508 119 55.4282 119C53.9028 119 52.7442 118.655 51.9522 117.966C51.1602 117.277 50.7642 116.111 50.7642 114.468V111.212C50.4855 111.256 50.1848 111.278 49.8622 111.278C49.5395 111.278 49.2682 111.153 49.0482 110.904C48.8428 110.655 48.7402 110.229 48.7402 109.628C48.7402 109.027 48.7768 108.594 48.8502 108.33C48.9235 108.051 49.0262 107.853 49.1582 107.736C49.3928 107.545 49.6862 107.45 50.0382 107.45L50.7642 107.538V105.272C50.7642 104.935 50.7715 104.685 50.7862 104.524C50.8155 104.363 50.8888 104.187 51.0062 103.996C51.1968 103.629 51.7615 103.446 52.7002 103.446C53.6975 103.446 54.2915 103.717 54.4822 104.26C54.5555 104.495 54.5922 104.869 54.5922 105.382V107.538C55.2375 107.479 55.7215 107.45 56.0442 107.45C56.3815 107.45 56.6308 107.465 56.7922 107.494C56.9682 107.509 57.1662 107.575 57.3862 107.692C57.7675 107.883 57.9582 108.447 57.9582 109.386C57.9582 110.31 57.7602 110.875 57.3642 111.08C57.1442 111.183 56.9462 111.249 56.7702 111.278C56.6088 111.293 56.3595 111.3 56.0222 111.3ZM69.9193 111.828C69.9193 112.723 69.6919 113.39 69.2373 113.83C68.7973 114.255 68.3059 114.468 67.7633 114.468H62.5493C62.5493 114.879 62.7913 115.223 63.2753 115.502C63.7593 115.781 64.2433 115.92 64.7273 115.92C65.5779 115.92 66.2453 115.832 66.7293 115.656L66.9713 115.568C67.3233 115.407 67.6166 115.326 67.8513 115.326C68.3206 115.326 68.7239 115.656 69.0613 116.316C69.2519 116.712 69.3473 117.049 69.3473 117.328C69.3473 118.633 67.7853 119.286 64.6613 119.286C63.5759 119.286 62.6079 119.103 61.7573 118.736C60.9213 118.355 60.2686 117.856 59.7993 117.24C58.8753 116.052 58.4133 114.725 58.4133 113.258C58.4133 111.41 59.0073 109.936 60.1953 108.836C61.3979 107.721 62.8939 107.164 64.6833 107.164C66.7219 107.164 68.2179 107.883 69.1713 109.32C69.6699 110.083 69.9193 110.919 69.9193 111.828ZM65.2773 112.466C65.8346 112.466 66.1133 112.231 66.1133 111.762C66.1133 111.425 65.9813 111.153 65.7173 110.948C65.4679 110.743 65.1013 110.64 64.6173 110.64C64.1479 110.64 63.6786 110.838 63.2093 111.234C62.7399 111.615 62.5053 112.026 62.5053 112.466H65.2773ZM77.8006 107.406C79.2673 107.406 80.4846 107.971 81.4526 109.1C82.4353 110.215 82.9266 111.579 82.9266 113.192V117.064C82.9266 117.401 82.9119 117.658 82.8826 117.834C82.8679 117.995 82.8093 118.179 82.7066 118.384C82.5013 118.78 81.9293 118.978 80.9906 118.978C79.9493 118.978 79.3479 118.707 79.1866 118.164C79.0986 117.915 79.0546 117.541 79.0546 117.042V113.17C79.0546 112.569 78.8786 112.099 78.5266 111.762C78.1893 111.425 77.7273 111.256 77.1406 111.256C76.5686 111.256 76.0993 111.432 75.7326 111.784C75.3806 112.136 75.2046 112.598 75.2046 113.17V117.064C75.2046 117.401 75.1899 117.658 75.1606 117.834C75.1459 117.995 75.0799 118.179 74.9626 118.384C74.7719 118.78 74.2073 118.978 73.2686 118.978C72.3446 118.978 71.7799 118.78 71.5746 118.384C71.4719 118.164 71.4059 117.973 71.3766 117.812C71.3619 117.636 71.3546 117.379 71.3546 117.042V109.254C71.3546 108.931 71.3619 108.689 71.3766 108.528C71.4059 108.352 71.4793 108.161 71.5966 107.956C71.8019 107.589 72.3666 107.406 73.2906 107.406C74.1853 107.406 74.7353 107.575 74.9406 107.912C75.0873 108.161 75.1606 108.462 75.1606 108.814C75.2193 108.711 75.3513 108.565 75.5566 108.374C75.7619 108.183 75.9599 108.029 76.1506 107.912C76.6493 107.575 77.1993 107.406 77.8006 107.406ZM92.4624 102.588C92.5797 102.368 92.7777 102.214 93.0564 102.126C93.3351 102.038 93.7017 101.994 94.1564 101.994C94.6257 101.994 94.9997 102.038 95.2784 102.126C95.5571 102.214 95.7477 102.368 95.8504 102.588C95.9677 102.808 96.0337 103.006 96.0484 103.182C96.0777 103.343 96.0924 103.593 96.0924 103.93V117.064C96.0924 117.401 96.0777 117.658 96.0484 117.834C96.0337 117.995 95.9677 118.179 95.8504 118.384C95.6304 118.78 95.0071 118.978 93.9804 118.978C92.9684 118.978 92.4037 118.619 92.2864 117.9C91.6704 118.604 90.8124 118.956 89.7124 118.956C88.3924 118.956 87.1897 118.384 86.1044 117.24C85.0191 116.081 84.4764 114.739 84.4764 113.214C84.4764 111.674 85.0191 110.325 86.1044 109.166C87.2044 108.007 88.4071 107.428 89.7124 107.428C90.7977 107.428 91.6411 107.795 92.2424 108.528V103.908C92.2424 103.571 92.2497 103.321 92.2644 103.16C92.2937 102.984 92.3597 102.793 92.4624 102.588ZM88.8984 114.534C89.2797 114.93 89.7417 115.128 90.2844 115.128C90.8271 115.128 91.2744 114.93 91.6264 114.534C91.9931 114.138 92.1764 113.705 92.1764 113.236C92.1764 112.752 92.0004 112.305 91.6484 111.894C91.3111 111.483 90.8491 111.278 90.2624 111.278C89.6757 111.278 89.2064 111.483 88.8544 111.894C88.5024 112.29 88.3264 112.73 88.3264 113.214C88.3264 113.698 88.5171 114.138 88.8984 114.534ZM105.367 102.852L109.437 102.874C111.564 102.874 113.434 103.644 115.047 105.184C116.661 106.709 117.467 108.594 117.467 110.838C117.467 113.067 116.675 114.981 115.091 116.58C113.522 118.179 111.615 118.978 109.371 118.978H105.345C104.451 118.978 103.893 118.795 103.673 118.428C103.497 118.12 103.409 117.651 103.409 117.02V104.788C103.409 104.436 103.417 104.179 103.431 104.018C103.461 103.857 103.534 103.666 103.651 103.446C103.857 103.05 104.429 102.852 105.367 102.852ZM109.437 115.084C110.493 115.084 111.447 114.695 112.297 113.918C113.148 113.126 113.573 112.136 113.573 110.948C113.573 109.76 113.155 108.77 112.319 107.978C111.498 107.171 110.53 106.768 109.415 106.768H107.303V115.084H109.437ZM130.076 111.828C130.076 112.723 129.848 113.39 129.394 113.83C128.954 114.255 128.462 114.468 127.92 114.468H122.706C122.706 114.879 122.948 115.223 123.432 115.502C123.916 115.781 124.4 115.92 124.884 115.92C125.734 115.92 126.402 115.832 126.886 115.656L127.128 115.568C127.48 115.407 127.773 115.326 128.008 115.326C128.477 115.326 128.88 115.656 129.218 116.316C129.408 116.712 129.504 117.049 129.504 117.328C129.504 118.633 127.942 119.286 124.818 119.286C123.732 119.286 122.764 119.103 121.914 118.736C121.078 118.355 120.425 117.856 119.956 117.24C119.032 116.052 118.57 114.725 118.57 113.258C118.57 111.41 119.164 109.936 120.352 108.836C121.554 107.721 123.05 107.164 124.84 107.164C126.878 107.164 128.374 107.883 129.328 109.32C129.826 110.083 130.076 110.919 130.076 111.828ZM125.434 112.466C125.991 112.466 126.27 112.231 126.27 111.762C126.27 111.425 126.138 111.153 125.874 110.948C125.624 110.743 125.258 110.64 124.774 110.64C124.304 110.64 123.835 110.838 123.366 111.234C122.896 111.615 122.662 112.026 122.662 112.466H125.434ZM142.527 107.67C143.29 108.125 143.671 108.609 143.671 109.122C143.671 109.415 143.524 109.819 143.231 110.332L138.677 118.142C138.53 118.391 138.296 118.619 137.973 118.824C137.65 119.015 137.328 119.11 137.005 119.11C136.697 119.11 136.396 119.037 136.103 118.89C135.824 118.729 135.626 118.567 135.509 118.406L135.311 118.164L130.735 110.332C130.442 109.848 130.295 109.452 130.295 109.144C130.295 108.616 130.676 108.125 131.439 107.67C131.996 107.347 132.436 107.186 132.759 107.186C133.082 107.186 133.331 107.289 133.507 107.494C133.698 107.685 133.896 107.978 134.101 108.374L136.983 113.918L139.865 108.374C140.026 108.095 140.144 107.897 140.217 107.78C140.305 107.648 140.437 107.523 140.613 107.406C140.789 107.274 141.024 107.208 141.317 107.208C141.61 107.208 142.014 107.362 142.527 107.67Z" fill="#FCFCFC"/>
</svg>
