<svg width="133" height="126" viewBox="0 0 133 126" fill="none" xmlns="http://www.w3.org/2000/svg">
<path d="M78.174 29.379C77.8891 30.5715 77.905 31.2248 78.174 32.3595C78.6501 33.4124 79.011 33.8853 79.7656 34.5948C80.4713 35.006 80.8064 35.1502 81.3572 35.3399C82.7457 35.4154 83.7447 35.4423 84.441 35.4423C85.1373 35.4423 86.6481 35.5911 87.2263 36.0948C88.2314 36.7362 88.1048 36.8465 88.619 37.4C89.1671 38.1486 89.1791 38.5847 89.3153 39.0655C89.3493 39.6703 89.3397 39.9899 89.3153 40.5557V42.791V65.8893V66.1134C89.5231 68.11 89.8565 69.3557 90.9069 71.8502C91.3538 72.8066 91.7192 73.3108 92.4986 74.0855L94.0902 75.5757L92.4986 77.066C91.7294 77.8706 91.3891 78.3644 90.9069 79.3013C90.001 80.8079 89.6427 82.0314 89.3153 85.0381V85.2621V106.87V112.086C89.0299 112.805 88.8596 113.132 88.5195 113.576C88.0012 114.239 87.6611 114.572 86.9279 115.066C86.1463 115.526 84.6289 115.729 84.2076 115.812H81.3572C80.7485 115.919 80.3985 116.062 79.7656 116.557C79.0156 117.217 78.6779 117.723 78.174 118.792C77.8435 119.849 77.8826 120.514 78.174 121.772C78.5892 123.098 78.8966 123.716 79.7656 124.753C80.2363 125.12 80.5724 125.286 81.3572 125.498H84.5404H88.5195C89.7042 125.524 90.4128 125.301 91.7028 124.753C92.3427 124.487 93.0472 124.018 94.886 122.518L97.2734 120.282C97.9983 119.474 98.3489 118.986 98.8651 118.047C99.1419 117.432 99.3082 116.985 99.6609 115.812C99.9895 114.683 100.167 113.906 100.457 112.086V104.635V91.223V86.0073V85.2621V85.0381C100.736 83.7571 101.084 83.1535 102.048 82.2817C102.495 81.7449 104.676 80.7483 106.027 80.7915L107.768 80.7964C108.857 80.7523 110.146 80.2045 110.802 79.3013C111.204 78.8085 111.385 78.4889 111.598 77.8111C112.045 76.1249 112.064 75.1664 111.598 73.3404C111.355 72.7577 111.195 72.4448 110.802 71.8502C110.113 70.7899 108.882 70.3826 107.768 70.3551L106.027 70.36C104.555 70.1306 104.138 70.0918 103.59 69.7025C102.965 69.4782 102.669 69.2342 102.048 68.8698C101.107 67.8428 100.736 67.1936 100.457 65.8893V61.4187V49.497V41.3008V39.0655C100.141 36.6507 99.9056 35.8772 99.6609 35.3399C99.4764 34.5584 99.3169 34.0794 98.8651 33.1046C98.3473 32.1956 97.9923 31.707 97.2734 30.8693C96.4459 29.9997 95.9103 29.4984 94.886 28.6339C93.7921 27.6787 93.0853 27.1935 91.7028 26.3986C90.6659 26.014 89.9683 25.8422 88.5195 25.6535C85.9873 25.4594 84.4492 25.4387 81.3572 25.6535C80.5919 25.8565 80.2545 26.0264 79.7656 26.3986C78.8116 27.3372 78.4243 28.3403 78.174 29.379Z" fill="#FCFCFC"/>
<path d="M34.7072 29.379C34.992 30.5715 34.9761 31.2248 34.7072 32.3595C34.231 33.4124 33.8701 33.8853 33.1155 34.5948C32.4098 35.006 32.0747 35.1502 31.5239 35.3399C30.1354 35.4154 29.1365 35.4423 28.4401 35.4423C27.7438 35.4423 26.233 35.5911 25.6548 36.0948C24.6497 36.7362 24.7763 36.8465 24.2621 37.4C23.714 38.1486 23.702 38.5847 23.5658 39.0655C23.5318 39.6703 23.5414 39.9899 23.5658 40.5557V42.791V65.8893V66.1134C23.358 68.11 23.0247 69.3557 21.9742 71.8502C21.5273 72.8066 21.1619 73.3108 20.3825 74.0855L18.7909 75.5757L20.3825 77.066C21.1517 77.8706 21.492 78.3644 21.9742 79.3013C22.8802 80.8079 23.2384 82.0314 23.5658 85.0381V85.2621V106.87V112.086C23.8512 112.805 24.0215 113.132 24.3616 113.576C24.88 114.239 25.22 114.572 25.9532 115.066C26.7348 115.526 28.0245 115.729 28.4458 115.812H31.5239C32.1326 115.919 32.4826 116.062 33.1155 116.557C33.8655 117.217 34.2032 117.723 34.7072 118.792C35.0376 119.849 34.9985 120.514 34.7072 121.772C34.2919 123.098 33.9845 123.716 33.1155 124.753C32.6449 125.12 32.3087 125.286 31.5239 125.498H28.3407H24.3616C23.1769 125.524 22.4683 125.301 21.1783 124.753C20.5384 124.487 19.834 124.018 17.9951 122.518L15.6077 120.282C14.8828 119.474 14.5322 118.986 14.016 118.047C13.7392 117.432 13.5729 116.985 13.2202 115.812C12.8916 114.683 12.7138 113.906 12.4244 112.086V104.635V91.223V86.0073V85.2621V85.0381C12.1455 83.7571 11.7972 83.1535 10.8328 82.2817C10.3859 81.7449 8.20491 80.7483 6.85373 80.7915L5.11289 80.7964C4.02456 80.7523 2.73492 80.2045 2.07886 79.3013C1.67757 78.8085 1.49653 78.4889 1.28304 77.8111C0.835758 76.1249 0.817127 75.1664 1.28304 73.3404C1.52597 72.7577 1.68621 72.4448 2.07886 71.8502C2.76838 70.7899 3.99894 70.3826 5.11289 70.3551L6.85373 70.36C8.3263 70.1306 8.74288 70.0918 9.29091 69.7025C9.91612 69.4782 10.2125 69.2342 10.8328 68.8698C11.7744 67.8428 12.1449 67.1936 12.4244 65.8893V61.4187V49.497V41.3008V39.0655C12.7397 36.6507 12.9755 35.8772 13.2202 35.3399C13.4047 34.5584 13.5642 34.0794 14.016 33.1046C14.5338 32.1956 14.8888 31.707 15.6077 30.8693C16.4352 29.9997 16.9708 29.4984 17.9951 28.6339C19.089 27.6787 19.7958 27.1935 21.1783 26.3986C22.2152 26.014 22.9128 25.8422 24.3616 25.6535C26.8938 25.4594 28.4319 25.4387 31.5239 25.6535C32.2892 25.8565 32.6266 26.0264 33.1155 26.3986C34.0695 27.3372 34.4568 28.3403 34.7072 29.379Z" fill="#FCFCFC"/>
<path d="M34.8196 58.409C34.3591 58.0535 34.1406 57.9626 33.9733 58.409C33.7642 66.3357 32.6777 69.7947 28.895 74.0669C33.9716 80.0436 34.2321 87.3779 33.9733 101.574H78.4078C78.3079 88.1895 78.0803 80.4677 83.486 74.0669C79.8162 69.3523 78.655 65.877 78.4078 57.9858C78.1188 57.3233 77.4339 57.3531 75.4455 57.9858C54.7745 67.7691 44.7089 70.2054 34.8196 58.409Z" fill="#F79323"/>
<path d="M49.6089 16.5001C45.3798 13.0149 45.9158 6.70129 53.1089 0.500061C49.2447 6.72318 49.8624 9.80132 56.6089 14.5001C67.4534 21.6212 66.1561 28.2437 54.6089 39.5001C60.7955 30.1114 59.0718 24.2935 49.6089 16.5001Z" fill="#F79323"/>
<path d="M50.6089 29.0001C46.7788 26.1952 46.4275 23.0433 49.6089 18.0001C49.0727 20.9774 49.0571 22.67 53.1089 26.0001C58.6001 30.2618 56.8686 33.9018 53.6089 39.5001C54.6987 34.2443 54.1345 31.9103 50.6089 29.0001Z" fill="#F79323"/>
<path d="M132.941 75.5001C131.239 53.5679 122.115 45.8464 99.9406 41.5001V49.5001C117.209 52.6762 124.251 59.4259 124.941 75.5001C125.133 92.479 119.335 98.8327 99.9406 102.5V110.5C124.405 105.605 132.824 98.8325 132.941 75.5001Z" fill="#FCFCFC"/>
</svg>
